<?xml version="1.0" encoding="us-ascii" standalone="no"?><svg xmlns="http://www.w3.org/2000/svg" xmlns:xlink="http://www.w3.org/1999/xlink" contentStyleType="text/css" height="564px" preserveAspectRatio="none" style="width:653px;height:564px;background:#FFFFFF;" version="1.1" viewBox="0 0 653 564" width="653px" zoomAndPan="magnify"><defs/><g><ellipse cx="324" cy="16" fill="#222222" rx="10" ry="10" style="stroke:#222222;stroke-width:1.0;"/><g id="Idle"><rect fill="#F1F1F1" height="50" rx="12.5" ry="12.5" style="stroke:#181818;stroke-width:0.5;" width="50" x="299" y="91.5"/><line style="stroke:#181818;stroke-width:0.5;" x1="299" x2="349" y1="119.1094" y2="119.1094"/><text fill="#000000" font-family="sans-serif" font-size="14" lengthAdjust="spacing" textLength="22" x="313" y="111.0332">Idle</text></g><g id="Init"><rect fill="#F1F1F1" height="50" rx="12.5" ry="12.5" style="stroke:#181818;stroke-width:0.5;" width="50" x="299" y="228.5"/><line style="stroke:#181818;stroke-width:0.5;" x1="299" x2="349" y1="256.1094" y2="256.1094"/><text fill="#000000" font-family="sans-serif" font-size="14" lengthAdjust="spacing" textLength="18" x="315" y="248.0332">Init</text></g><g id="elem_GMN7"><path d="M146,87 L146,146.0547 A0,0 0 0 0 146,146.0547 L264,146.0547 A0,0 0 0 0 264,146.0547 L264,120.5 L298.7,116.5 L264,112.5 L264,97 L254,87 L146,87 A0,0 0 0 0 146,87 " fill="#FEFFDD" style="stroke:#181818;stroke-width:0.5;"/><path d="M254,87 L254,97 L264,97 L254,87 " fill="#FEFFDD" style="stroke:#181818;stroke-width:0.5;"/><text fill="#000000" font-family="sans-serif" font-size="13" lengthAdjust="spacing" textLength="92" x="152" y="105.4951">Done := FALSE</text><text fill="#000000" font-family="sans-serif" font-size="13" lengthAdjust="spacing" textLength="97" x="152" y="121.8467">Active := FALSE</text><text fill="#000000" font-family="sans-serif" font-size="13" lengthAdjust="spacing" textLength="90" x="152" y="138.1982">Error := FALSE</text></g><g id="Error"><rect fill="#F1F1F1" height="50" rx="12.5" ry="12.5" style="stroke:#181818;stroke-width:0.5;" width="52" x="159" y="502.5"/><line style="stroke:#181818;stroke-width:0.5;" x1="159" x2="211" y1="530.1094" y2="530.1094"/><text fill="#000000" font-family="sans-serif" font-size="14" lengthAdjust="spacing" textLength="32" x="169" y="522.0332">Error</text></g><g id="InOp"><rect fill="#F1F1F1" height="50" rx="12.5" ry="12.5" style="stroke:#181818;stroke-width:0.5;" width="50" x="270" y="365.5"/><line style="stroke:#181818;stroke-width:0.5;" x1="270" x2="320" y1="393.1094" y2="393.1094"/><text fill="#000000" font-family="sans-serif" font-size="14" lengthAdjust="spacing" textLength="30" x="280" y="385.0332">InOp</text></g><g id="elem_GMN15"><path d="M150.5,224 L150.5,283.0547 A0,0 0 0 0 150.5,283.0547 L263.5,283.0547 A0,0 0 0 0 263.5,283.0547 L263.5,257.5 L298.55,253.5 L263.5,249.5 L263.5,234 L253.5,224 L150.5,224 A0,0 0 0 0 150.5,224 " fill="#FEFFDD" style="stroke:#181818;stroke-width:0.5;"/><path d="M253.5,224 L253.5,234 L263.5,234 L253.5,224 " fill="#FEFFDD" style="stroke:#181818;stroke-width:0.5;"/><text fill="#000000" font-family="sans-serif" font-size="13" lengthAdjust="spacing" textLength="92" x="156.5" y="242.4951">Done := FALSE</text><text fill="#000000" font-family="sans-serif" font-size="13" lengthAdjust="spacing" textLength="89" x="156.5" y="258.8467">Active := TRUE</text><text fill="#000000" font-family="sans-serif" font-size="13" lengthAdjust="spacing" textLength="90" x="156.5" y="275.1982">Error := FALSE</text></g><g id="Done"><rect fill="#F1F1F1" height="50" rx="12.5" ry="12.5" style="stroke:#181818;stroke-width:0.5;" width="54" x="439" y="502.5"/><line style="stroke:#181818;stroke-width:0.5;" x1="439" x2="493" y1="530.1094" y2="530.1094"/><text fill="#000000" font-family="sans-serif" font-size="14" lengthAdjust="spacing" textLength="34" x="449" y="522.0332">Done</text></g><g id="elem_GMN22"><path d="M355.5,361 L355.5,386.5 L320.14,390.5 L355.5,394.5 L355.5,420.0547 A0,0 0 0 0 355.5,420.0547 L468.5,420.0547 A0,0 0 0 0 468.5,420.0547 L468.5,371 L458.5,361 L355.5,361 A0,0 0 0 0 355.5,361 " fill="#FEFFDD" style="stroke:#181818;stroke-width:0.5;"/><path d="M458.5,361 L458.5,371 L468.5,371 L458.5,361 " fill="#FEFFDD" style="stroke:#181818;stroke-width:0.5;"/><text fill="#000000" font-family="sans-serif" font-size="13" lengthAdjust="spacing" textLength="92" x="361.5" y="379.4951">Done := FALSE</text><text fill="#000000" font-family="sans-serif" font-size="13" lengthAdjust="spacing" textLength="89" x="361.5" y="395.8467">Active := TRUE</text><text fill="#000000" font-family="sans-serif" font-size="13" lengthAdjust="spacing" textLength="90" x="361.5" y="412.1982">Error := FALSE</text></g><g id="elem_GMN26"><path d="M6,498 L6,557.0547 A0,0 0 0 0 6,557.0547 L124,557.0547 A0,0 0 0 0 124,557.0547 L124,531.5 L158.82,527.5 L124,523.5 L124,508 L114,498 L6,498 A0,0 0 0 0 6,498 " fill="#FEFFDD" style="stroke:#181818;stroke-width:0.5;"/><path d="M114,498 L114,508 L124,508 L114,498 " fill="#FEFFDD" style="stroke:#181818;stroke-width:0.5;"/><text fill="#000000" font-family="sans-serif" font-size="13" lengthAdjust="spacing" textLength="92" x="12" y="516.4951">Done := FALSE</text><text fill="#000000" font-family="sans-serif" font-size="13" lengthAdjust="spacing" textLength="97" x="12" y="532.8467">Active := FALSE</text><text fill="#000000" font-family="sans-serif" font-size="13" lengthAdjust="spacing" textLength="82" x="12" y="549.1982">Error := TRUE</text></g><g id="elem_GMN30"><path d="M528,498 L528,523.5 L493.41,527.5 L528,531.5 L528,557.0547 A0,0 0 0 0 528,557.0547 L646,557.0547 A0,0 0 0 0 646,557.0547 L646,508 L636,498 L528,498 A0,0 0 0 0 528,498 " fill="#FEFFDD" style="stroke:#181818;stroke-width:0.5;"/><path d="M636,498 L636,508 L646,508 L636,498 " fill="#FEFFDD" style="stroke:#181818;stroke-width:0.5;"/><text fill="#000000" font-family="sans-serif" font-size="13" lengthAdjust="spacing" textLength="84" x="534" y="516.4951">Done := TRUE</text><text fill="#000000" font-family="sans-serif" font-size="13" lengthAdjust="spacing" textLength="97" x="534" y="532.8467">Active := FALSE</text><text fill="#000000" font-family="sans-serif" font-size="13" lengthAdjust="spacing" textLength="90" x="534" y="549.1982">Error := FALSE</text></g><!--link *start* to Idle--><g id="link_*start*_Idle"><path d="M324,26.09 C324,40.76 324,64.13 324,85.21 " fill="none" id="*start*-to-Idle" style="stroke:#181818;stroke-width:1.0;"/><polygon fill="#181818" points="324,91.21,328,82.21,324,86.21,320,82.21,324,91.21" style="stroke:#181818;stroke-width:1.0;"/></g><!--link Idle to Init--><g id="link_Idle_Init"><path d="M324,141.64 C324,166.06 324,197.61 324,222.12 " fill="none" id="Idle-to-Init" style="stroke:#181818;stroke-width:1.0;"/><polygon fill="#181818" points="324,228.12,328,219.12,324,223.12,320,219.12,324,228.12" style="stroke:#181818;stroke-width:1.0;"/><text fill="#000000" font-family="sans-serif" font-size="13" lengthAdjust="spacing" textLength="56" x="325" y="190.4951">Execute&#8593;</text></g><!--link Init to Init--><g id="link_Init_Init"><path d="M349.28,242 C366.77,238.51 384,242.34 384,253.5 C384,264.66 372.654,269.6641 355.164,266.1741 " fill="none" id="Init-to-Init" style="stroke:#181818;stroke-width:1.0;"/><polygon fill="#181818" points="349.28,265,357.3233,270.6838,354.1833,265.9784,358.8887,262.8385,349.28,265" style="stroke:#181818;stroke-width:1.0;"/><text fill="#000000" font-family="sans-serif" font-size="13" lengthAdjust="spacing" textLength="56" x="390" y="258.9951">Execute&#8593;</text></g><!--link Init to Error--><g id="link_Init_Error"><path d="M298.88,272.69 C266.45,296.77 212.85,338.77 202,361 C179.51,407.07 179.6064,462.8357 182.0364,496.3757 " fill="none" id="Init-to-Error" style="stroke:#181818;stroke-width:1.0;"/><polygon fill="#181818" points="182.47,502.36,185.8092,493.0945,182.1087,497.3731,177.8301,493.6726,182.47,502.36" style="stroke:#181818;stroke-width:1.0;"/><text fill="#000000" font-family="sans-serif" font-size="13" lengthAdjust="spacing" textLength="48" x="203" y="395.9951">SetError</text></g><!--link Init to InOp--><g id="link_Init_InOp"><path d="M328.99,278.66 C331.24,293.91 332.49,313.89 328,331 C324.83,343.07 321.705,350.1665 315.455,360.2765 " fill="none" id="Init-to-InOp" style="stroke:#181818;stroke-width:1.0;"/><polygon fill="#181818" points="312.3,365.38,320.4348,359.828,314.9292,361.1271,313.6301,355.6214,312.3,365.38" style="stroke:#181818;stroke-width:1.0;"/></g><!--link InOp to Init--><g id="link_InOp_Init"><path d="M273.95,365.38 C263.45,350.32 254.44,330.53 262,313 C269.56,295.47 280.4525,284.3534 294.1525,274.0634 " fill="none" id="InOp-to-Init" style="stroke:#181818;stroke-width:1.0;"/><polygon fill="#181818" points="298.95,270.46,289.3515,272.6667,294.9521,273.4628,294.156,279.0634,298.95,270.46" style="stroke:#181818;stroke-width:1.0;"/><text fill="#000000" font-family="sans-serif" font-size="13" lengthAdjust="spacing" textLength="56" x="263" y="327.4951">Execute&#8593;</text></g><!--link InOp to Done--><g id="link_InOp_Done"><path d="M320.23,411.42 C352,436.5 401.6609,475.7019 434.2609,501.4419 " fill="none" id="InOp-to-Done" style="stroke:#181818;stroke-width:1.0;"/><polygon fill="#181818" points="438.97,505.16,434.3852,496.4434,435.0458,502.0615,429.4276,502.7222,438.97,505.16" style="stroke:#181818;stroke-width:1.0;"/></g><!--link InOp to Error--><g id="link_InOp_Error"><path d="M275.33,415.64 C255.44,440.06 228.6299,472.9585 208.6599,497.4685 " fill="none" id="InOp-to-Error" style="stroke:#181818;stroke-width:1.0;"/><polygon fill="#181818" points="204.87,502.12,213.6559,497.6693,208.0283,498.2437,207.4539,492.6161,204.87,502.12" style="stroke:#181818;stroke-width:1.0;"/><text fill="#000000" font-family="sans-serif" font-size="13" lengthAdjust="spacing" textLength="48" x="248" y="464.4951">SetError</text></g><!--link Error to Idle--><g id="link_Error_Idle"><path d="M170.49,502.1 C140.34,447.89 78.08,315.02 133,224 C171.41,160.34 217.04,183.92 281,146 C286.85,142.53 288.0064,141.9061 293.7864,138.1061 " fill="none" id="Error-to-Idle" style="stroke:#181818;stroke-width:1.0;"/><polygon fill="#181818" points="298.8,134.81,289.0823,136.4118,294.622,137.5568,293.4771,143.0965,298.8,134.81" style="stroke:#181818;stroke-width:1.0;"/><text fill="#000000" font-family="sans-serif" font-size="13" lengthAdjust="spacing" textLength="59" x="113" y="327.4951">Execute&#9450;</text></g><!--link Done to Idle--><g id="link_Done_Idle"><path d="M471.91,502.15 C476.8,480.68 483.35,448.47 486,420 C494.19,331.97 498.97,298.91 452,224 C425.97,182.49 383.4318,152.3689 354.1818,134.6489 " fill="none" id="Done-to-Idle" style="stroke:#181818;stroke-width:1.0;"/><polygon fill="#181818" points="349.05,131.54,354.675,139.6245,353.3265,134.1307,358.8202,132.7821,349.05,131.54" style="stroke:#181818;stroke-width:1.0;"/><text fill="#000000" font-family="sans-serif" font-size="13" lengthAdjust="spacing" textLength="59" x="491" y="327.4951">Execute&#9450;</text></g><!--SRC=[YzQALT3LjLFmJCb9vG8H45vUPec2bO9hHMfoQKdgexQ9N7dv9QaAEQbf9GhvQH352a3Waf-Ngc1bg-3cw1Fi2XPnJ2x9B4CJSoqgoYz22ANcfIY0ZEFY0bk3tJwu55IpGd1g2PY9hCc_0CrTG2c2xWe92YNWB2wGoJZT1PK2Mu7WOZWJxB2YpFGCgCk0RgNSPH09M7mXkMpoAjIGWBY1Z2W2km5X8LWt7llW7WGfHB4FxXaIKWG0]--></g></svg>